<?xml version="1.0" encoding="UTF-8"?>
<svg id="Layer_2" xmlns="http://www.w3.org/2000/svg" xmlns:xlink="http://www.w3.org/1999/xlink" version="1.1" viewBox="0 0 852.45 849.02">
  <!-- Generator: Adobe Illustrator 29.5.1, SVG Export Plug-In . SVG Version: 2.1.0 Build 141)  -->
  <defs>
    <style>
      .st0 {
        fill: #e8ba67;
      }

      .st1 {
        fill: url(#linear-gradient2);
      }

      .st2 {
        fill: url(#linear-gradient1);
      }

      .st3 {
        fill: url(#linear-gradient3);
      }

      .st4 {
        fill: url(#linear-gradient5);
      }

      .st5 {
        fill: url(#linear-gradient4);
      }

      .st6 {
        fill: #470247;
        stroke: #e8ba67;
        stroke-miterlimit: 10;
        stroke-width: 21.9px;
      }

      .st7 {
        fill: url(#linear-gradient);
      }
    </style>
    <linearGradient id="linear-gradient" x1="224.973" y1="285.775" x2="464.83" y2="285.775" gradientUnits="userSpaceOnUse">
      <stop offset="0" stop-color="#ff2a3c"/>
      <stop offset="1" stop-color="#ffb22a"/>
    </linearGradient>
    <linearGradient id="linear-gradient1" x1="123.79" y1="561.416" x2="571.94" y2="561.416" xlink:href="#linear-gradient"/>
    <linearGradient id="linear-gradient2" x1="459.14" y1="414.555" x2="721.52" y2="414.555" xlink:href="#linear-gradient"/>
    <linearGradient id="linear-gradient3" x1="247.94" y1="605.057" x2="635.93" y2="605.057" gradientUnits="userSpaceOnUse">
      <stop offset="0" stop-color="#0c1b32"/>
      <stop offset="1" stop-color="#0a5bcb"/>
    </linearGradient>
    <linearGradient id="linear-gradient4" x1="417.04" y1="325.435" x2="680.631" y2="325.435" xlink:href="#linear-gradient3"/>
    <linearGradient id="linear-gradient5" x1="164.493" y1="358.355" x2="346.86" y2="358.355" xlink:href="#linear-gradient3"/>
  </defs>
  <g id="Layer_2-2">
    <g id="Layer_2-21" data-name="Layer_2-2">
      <g id="Layer_3">
        <path class="st0" d="M426.23,848.94c-298.23,5.7-512.87-318.49-391.86-590.85,143.91-344.12,639.85-344.13,783.73.01,120.95,272.35-93.61,596.58-391.87,590.84h0ZM426.23,36.34C154.64,31.13-40.8,326.37,69.37,574.39c131.09,313.4,582.66,313.4,713.73,0C893.23,326.38,697.85,31.11,426.23,36.34h0Z"/>
        <circle class="st6" cx="426.228" cy="424.51" r="406.3"/>
        <g id="In_-L">
          <path class="st7" d="M236.02,490.86l196.38-340.14c10.93.37,21.77,1.42,32.43,3.01l-42.18-73.04c-53.81,93.19-143.3,248.22-197.56,342.18-.91,23.08,3.55,46.27,10.94,67.99h-.01Z"/>
        </g>
        <path class="st0" d="M234.91,501.78c-9.3-25.5-15.23-52.38-14.53-79.77,50.4-87.33,151.69-262.72,202.26-350.32l50.7,87.79c-12.42-1.83-25.77-3.7-38.41-4.16l-200.03,346.45h0l.01.01ZM229.36,424.47c-.07,18.85,2.57,37.46,7.84,55.34l192.66-333.69c8.84.3,17.82.87,26.49,1.94l-33.7-58.36-193.29,334.77h0Z"/>
        <g id="in_-B">
          <path class="st2" d="M179.96,553.99c-5.07-9.55-9.6-19.49-13.52-29.55l-42.65,73.88c.16-.2,394.75.4,394.83-.21,20.16-11.2,38.09-25.88,53.32-43.25H180.43l-.47-.89v.02h0Z"/>
        </g>
        <path class="st0" d="M519.44,602.84H115.99l51.17-88.65c4.72,11.95,9.93,24.87,15.98,36.19h398.93c-17.77,20.84-38.45,39.5-62.64,52.46h.01ZM131.58,593.84h385.49c16.51-9.28,31.47-20.85,44.6-34.46H177.71c-4.3-8.05-8.41-16.34-11.97-24.73,0,0-34.17,59.18-34.16,59.19Z"/>
        <g id="inside_R">
          <path class="st1" d="M638.11,595.62l-2.15,2.71h85.56c-.06-.13-198.14-343.16-198.23-343.33-19.81-11.83-41.51-19.87-64.15-24.22,33.83,58.6,165.19,286.13,196.4,340.16-5.35,8.56-11.23,16.87-17.43,24.68Z"/>
        </g>
        <path class="st0" d="M729.31,602.84h-102.67c8.09-10.08,16.73-21.01,23.63-31.99-29.41-50.93-167.86-290.73-200.06-346.5,26.77,4.77,53.15,13.03,76.39,27.4.72,1.05,201.91,349.85,202.71,351.09h0ZM645.19,593.84h68.54l-193.75-335.57c-16.2-9.48-33.62-16.51-51.86-20.92,34.6,59.93,160.48,277.94,192.68,333.69-4.85,7.81-10.06,15.55-15.61,22.8Z"/>
        <path class="st3" d="M609.72,530.09c-36.89,66.68-110.67,110.27-187.06,109.65-34.73,0-69.26-8.54-99.83-24.68h-74.89c110.74,106.23,304.23,83.94,387.99-44.64l-24.76-42.88-1.44,2.55h-.01,0Z"/>
        <path class="st0" d="M422.65,687.19c-69.16.54-135.92-28.23-185.22-76.13h86.35c30.28,16.1,64.45,24.69,98.87,24.67,78.62.79,153.29-46.37,188.47-116.25l29.53,51.14c-47.59,72.02-131.51,117.27-217.99,116.59v-.02h-.01ZM258.53,619.05c108.61,96.56,292.5,72.37,372.65-48.83l-20.01-34.65c-38.14,65.99-112.15,108.72-188.53,108.13-35.23,0-69.88-8.53-100.81-24.68h-63.31v.03h.01Z"/>
        <g id="c-R">
          <path class="st5" d="M660.33,324.81c-36.23-87.7-123.78-150.82-218.57-156.86l-24.72,42.83c114.87-5.11,218.79,93.05,220.01,207.82l37.15,64.32c11.93-52.32,7.23-108.8-13.84-158.11h-.03,0Z"/>
        </g>
        <path class="st0" d="M675.95,493.98c-.08-1.4-44.14-74.01-42.92-75.67-1.4-115.36-107.99-211.93-223-203.44l29.5-51.1c97.17,5.31,187.37,69.56,224.47,159.47h0c23.1,53.39,26.06,114.49,11.94,170.74h.01ZM641.01,417.47l31.35,54.3c9.04-48.59,3.63-100.04-15.72-145.4h0c-35.36-85.54-120.3-147.4-212.69-154.23l-19.97,34.59c114.18-1.29,215.12,96.82,217.03,210.74h0Z"/>
        <g id="c-_L">
          <path class="st4" d="M235.58,530.1c-56.32-96.56-22.41-229.27,73.74-286.93.64,0,37.16-64.36,37.54-64.63-148.33,42.46-226.61,222.17-156.21,359.63h49.69c-1.59-2.63-3.23-5.3-4.76-8.07h0Z"/>
        </g>
        <path class="st0" d="M247.46,542.16h-59.31c-74.89-145.81,9.34-329.63,167.38-370.66-1.18.77-42.05,75.3-44.11,75.06-94.34,56.57-127.64,186.86-72.36,281.58h0c2.06,3.72,6.2,10.38,8.4,14.03h0v-.01h0ZM193.17,534.16h40.12c-.4-.69-.8-1.39-1.2-2.1h0c-57.27-98.16-22.98-233.1,74.61-291.97l31.42-54.42c-138.95,45.49-210.72,217.82-144.95,348.49h0Z"/>
      </g>
    </g>
  </g>
</svg>